<svg width="512" height="512" viewBox="0 0 512 512" fill="none" xmlns="http://www.w3.org/2000/svg">
<g clip-path="url(#clip0_5_329)">
<rect width="512" height="512" fill="white"/>
<rect width="512" height="512" fill="#CE3939"/>
<path d="M214.864 170.616L215.12 173.176C215.12 180.173 214.011 186.147 211.792 191.096C209.573 192.803 206.075 194.168 201.296 195.192L244.048 321.656L268.368 324.728C268.368 331.725 266.405 339.149 262.48 347H200.272L197.968 332.92C205.136 330.189 209.829 328.397 212.048 327.544L201.808 298.616H144.208C139.088 313.805 136.357 321.741 136.016 322.424L153.68 324.728C153.68 328.312 152.997 332.493 151.632 337.272C150.267 341.88 148.987 345.123 147.792 347H85.584L83.28 332.92C90.96 329.677 97.872 327.288 104.016 325.752L147.024 194.168C135.589 192.461 126.971 190.243 121.168 187.512C121.168 182.563 121.936 178.211 123.472 174.456C127.056 173.261 135.419 171.896 148.56 170.36C161.872 168.653 174.501 167.8 186.448 167.8C198.565 167.8 208.037 168.739 214.864 170.616ZM181.84 241.016L174.416 207.224H171.856L163.664 242.552L151.632 274.552H194.384L181.84 241.016ZM364.434 213.88C381.501 213.88 393.874 218.061 401.554 226.424C409.234 234.787 413.074 246.477 413.074 261.496C413.074 276.515 412.221 296.824 410.514 322.424L430.738 324.728C430.738 331.725 428.775 339.149 424.85 347H361.106L358.802 332.92C366.823 329.677 374.247 327.117 381.074 325.24C380.562 305.613 380.05 289.144 379.538 275.832C379.026 262.349 377.746 253.219 375.698 248.44C373.65 243.661 369.127 241.272 362.13 241.272C351.549 241.272 342.077 243.149 333.714 246.904C333.543 254.243 333.031 266.275 332.178 283C331.495 299.555 331.069 312.696 330.898 322.424L350.866 324.728C350.866 331.725 348.903 339.149 344.978 347H281.234L278.93 332.92C287.463 329.677 295.143 327.117 301.97 325.24C301.799 315 301.202 300.835 300.178 282.744C299.325 264.653 298.813 251.256 298.642 242.552C292.327 241.869 285.586 240.589 278.418 238.712L279.698 220.28C291.645 217.037 305.127 215.416 320.146 215.416C322.023 216.611 324.583 220.28 327.826 226.424C333.629 223.523 340.711 220.707 349.074 217.976C357.437 215.245 362.557 213.88 364.434 213.88Z" fill="white"/>
</g>
<defs>
<clipPath id="clip0_5_329">
<rect width="512" height="512" fill="white"/>
</clipPath>
</defs>
</svg>
